<?xml version="1.0" standalone="no"?>
<!DOCTYPE svg PUBLIC "-//W3C//DTD SVG 20010904//EN"
 "http://www.w3.org/TR/2001/REC-SVG-20010904/DTD/svg10.dtd">
<svg version="1.0" xmlns="http://www.w3.org/2000/svg"
 width="1280.000000pt" height="838.000000pt" viewBox="0 0 1280.000000 838.000000"
 preserveAspectRatio="xMidYMid meet">
<metadata>
Created by potrace 1.15, written by Peter Selinger 2001-2017
</metadata>
<g transform="translate(0.000000,838.000000) scale(0.100000,-0.100000)"
fill="#000000" stroke="none">
<path d="M12645 8355 c-128 -33 -224 -69 -345 -129 -711 -354 -1152 -1051
-1265 -1996 -26 -213 -30 -574 -10 -860 23 -333 31 -799 15 -932 -27 -233 -68
-385 -155 -564 -142 -293 -362 -481 -650 -555 -129 -33 -325 -34 -444 -1 -74
20 -94 31 -155 83 -92 79 -293 212 -426 282 -475 251 -1058 381 -1630 364
-355 -11 -611 -52 -1190 -193 -483 -118 -783 -178 -1015 -204 -421 -46 -854 0
-1270 136 -92 30 -434 160 -443 168 -1 2 18 45 43 97 139 296 204 648 176 961
-20 225 -85 447 -133 456 -42 8 -271 -173 -445 -351 -129 -133 -256 -287 -354
-430 -33 -48 -64 -87 -68 -87 -5 0 -42 15 -82 33 -147 67 -331 118 -518 142
-266 36 -544 2 -784 -97 -55 -22 -102 -36 -106 -32 -4 5 -46 61 -93 125 -115
156 -246 306 -370 424 -153 145 -326 275 -367 275 -6 0 -10 -10 -10 -22 0 -13
-11 -53 -25 -90 -47 -124 -67 -247 -73 -448 -4 -142 -1 -213 11 -304 32 -224
103 -449 200 -632 l44 -82 -30 -53 c-69 -128 -192 -208 -362 -237 -53 -9 -96
-20 -96 -24 0 -5 4 -8 10 -8 8 0 445 -65 489 -73 23 -4 -33 -62 -82 -86 -68
-33 -173 -42 -357 -33 -186 10 -283 6 -277 -11 2 -6 59 -26 128 -44 68 -18
165 -44 214 -57 50 -14 407 -109 795 -212 388 -103 710 -190 715 -195 6 -4 17
-61 24 -126 14 -119 38 -192 75 -223 9 -7 53 -63 98 -124 44 -61 84 -115 88
-119 4 -5 53 48 108 117 56 68 105 126 109 128 24 10 63 91 64 130 0 24 6 83
12 132 12 87 13 89 40 93 15 2 37 8 50 12 19 8 31 0 85 -52 l62 -62 66 -199
c61 -184 66 -205 60 -258 -8 -63 -41 -170 -75 -237 -15 -28 -19 -47 -13 -53
15 -15 136 109 153 154 7 21 16 38 20 38 16 0 33 -78 32 -145 0 -38 -8 -94
-17 -124 -29 -96 -20 -95 62 9 35 44 67 80 72 80 16 0 40 -94 40 -154 0 -34
-7 -101 -15 -150 -8 -49 -13 -91 -11 -93 2 -2 36 40 76 94 40 54 75 100 77
102 6 8 33 -32 60 -88 23 -47 27 -73 32 -187 4 -73 9 -135 12 -139 4 -3 32 25
64 62 32 38 61 69 65 71 4 1 17 -21 29 -49 69 -159 45 -308 -70 -433 -66 -72
-138 -120 -235 -155 -120 -44 -219 -59 -496 -76 -408 -26 -544 -60 -728 -185
-131 -89 -269 -277 -270 -367 0 -84 41 -109 161 -99 67 5 105 17 227 68 326
135 475 169 897 203 441 35 651 95 865 246 174 123 347 352 364 482 4 29 15
67 20 67 1 0 40 -15 87 -34 46 -19 233 -91 414 -160 581 -223 615 -237 733
-319 97 -67 173 -151 218 -243 32 -65 38 -87 42 -161 3 -50 -1 -109 -8 -142
-16 -70 -55 -162 -77 -178 -14 -11 2 -13 88 -13 98 0 111 2 166 30 80 40 165
130 204 216 105 232 35 506 -195 760 -114 126 -388 338 -593 461 -51 31 -92
57 -91 59 2 2 24 -2 48 -8 26 -7 136 -12 265 -12 241 -1 340 11 525 64 191 55
344 123 510 230 198 127 359 192 559 225 149 25 387 17 527 -19 242 -61 447
-173 609 -334 196 -193 286 -392 287 -632 1 -413 -260 -734 -686 -841 -48 -13
-83 -25 -79 -29 16 -14 132 -40 216 -49 114 -11 307 9 402 42 222 78 440 220
610 398 311 325 399 675 290 1147 -20 84 -19 93 8 57 213 -288 567 -523 927
-615 142 -36 269 -50 550 -60 287 -10 424 -26 544 -61 359 -106 555 -441 481
-824 -14 -74 -14 -76 8 -102 43 -50 124 -67 190 -39 18 7 53 36 78 63 63 68
74 118 73 338 0 198 -23 317 -93 496 -130 331 -403 620 -735 778 -142 68 -224
98 -532 194 -149 47 -315 102 -370 122 -536 201 -794 550 -744 1010 7 63 16
115 20 115 4 0 45 -25 91 -56 384 -258 942 -306 1414 -124 695 269 1179 942
1299 1805 43 310 42 665 -4 1294 -65 892 -39 1303 115 1766 48 146 154 412
190 477 8 14 15 29 15 32 0 12 -57 5 -145 -19z"/>
</g>
</svg>
